<svg width="1280" height="698" viewBox="0 0 1280 698" fill="none" xmlns="http://www.w3.org/2000/svg">
<path d="M496 50C496 22.3858 473.614 0 446 0L50 0C22.3858 0 0 22.3858 0 50L0 698L496 698L496 50Z" fill="white"/>
<rect width="860" height="45" transform="matrix(-1 0 0 1 1280 653)" fill="white"/>
<path d="M500.535 629.51C497.188 622.358 496 609 496 609L448 679L535 653C535 653 526.456 652.136 521.395 650.001C515.977 647.716 512.962 645.839 508.698 641.505C504.792 637.536 502.97 634.715 500.535 629.51Z" fill="white"/>
</svg>
